<svg xmlns="http://www.w3.org/2000/svg" width="50" height="50" viewBox="0 0 50 50" fill="none">
    <g filter="url(#filter0_d_124_747)">
        <rect x="7" y="7" width="36" height="36" rx="7" fill="url(#paint0_linear_124_747)"
            fill-opacity="0.35" shape-rendering="crispEdges" />
        <rect x="7.5" y="7.5" width="35" height="35" rx="6.5" stroke="url(#paint1_linear_124_747)"
            stroke-opacity="0.3" shape-rendering="crispEdges" />
    </g>
    <path fill-rule="evenodd" clip-rule="evenodd"
        d="M24.6249 17.3553C26.3459 17.2705 28.0451 17.7695 29.4469 18.7713C30.6641 19.6412 31.5952 20.8458 32.1317 22.2319L29.7297 21.1861C29.4035 21.0441 29.0239 21.1934 28.8819 21.5196C28.7399 21.8459 28.8892 22.2254 29.2154 22.3675L33.027 24.0268C33.1962 24.1005 33.3889 24.0981 33.5562 24.0201C33.7235 23.9421 33.8494 23.7961 33.9018 23.6192L35.0736 19.6632C35.1747 19.322 34.98 18.9636 34.6389 18.8625C34.2978 18.7615 33.9393 18.9561 33.8383 19.2972L33.2018 21.4458C32.5598 19.9613 31.5236 18.6718 30.1961 17.7231C28.558 16.5524 26.5725 15.9694 24.5615 16.0685C22.5506 16.1676 20.632 16.943 19.117 18.269C17.6019 19.5951 16.5792 21.394 16.2146 23.3741C16.1501 23.724 16.3815 24.0599 16.7315 24.1243C17.0814 24.1888 17.4172 23.9574 17.4817 23.6074C17.7937 21.9129 18.6689 20.3734 19.9655 19.2386C21.2621 18.1037 22.904 17.4401 24.6249 17.3553ZM33.2681 25.8699C33.618 25.9343 33.8495 26.2702 33.785 26.6201C33.4204 28.6003 32.3977 30.3992 30.8826 31.7252C29.3676 33.0513 27.449 33.8267 25.4381 33.9258C23.4271 34.0249 21.4416 33.4419 19.8035 32.2712C18.4647 31.3144 17.4221 30.0109 16.7814 28.5103L16.397 30.9372C16.3414 31.2886 16.0114 31.5283 15.66 31.4727C15.3086 31.417 15.0688 31.087 15.1245 30.7356L15.7699 26.6605C15.7988 26.4782 15.9045 26.317 16.0602 26.2179C16.2159 26.1187 16.4066 26.0912 16.584 26.1421L20.5796 27.2898C20.9216 27.388 21.1191 27.7449 21.0209 28.0868C20.9227 28.4288 20.5658 28.6264 20.2239 28.5281L17.9076 27.8628C18.4497 29.2066 19.365 30.3742 20.5526 31.223C21.9545 32.2248 23.6537 32.7238 25.3746 32.639C27.0956 32.5541 28.7375 31.8905 30.0341 30.7557C31.3306 29.6209 32.2059 28.0814 32.5179 26.3868C32.5823 26.0369 32.9182 25.8055 33.2681 25.8699Z"
        fill="url(#paint2_linear_124_747)" />
    <defs>
        <filter id="filter0_d_124_747" x="0.4375" y="0.4375" width="49.125" height="49.125"
            filterUnits="userSpaceOnUse" color-interpolation-filters="sRGB">
            <feFlood flood-opacity="0" result="BackgroundImageFix" />
            <feColorMatrix in="SourceAlpha" type="matrix"
                values="0 0 0 0 0 0 0 0 0 0 0 0 0 0 0 0 0 0 127 0" result="hardAlpha" />
            <feOffset />
            <feGaussianBlur stdDeviation="3.28125" />
            <feComposite in2="hardAlpha" operator="out" />
            <feColorMatrix type="matrix" values="0 0 0 0 0 0 0 0 0 0 0 0 0 0 0 0 0 0 0.4 0" />
            <feBlend mode="normal" in2="BackgroundImageFix" result="effect1_dropShadow_124_747" />
            <feBlend mode="normal" in="SourceGraphic" in2="effect1_dropShadow_124_747"
                result="shape" />
        </filter>
        <linearGradient id="paint0_linear_124_747" x1="25" y1="7" x2="25" y2="43"
            gradientUnits="userSpaceOnUse">
            <stop stop-color="#284A90" />
            <stop offset="1" stop-color="#284A90" stop-opacity="0.4" />
        </linearGradient>
        <linearGradient id="paint1_linear_124_747" x1="25" y1="7" x2="25" y2="43"
            gradientUnits="userSpaceOnUse">
            <stop stop-color="#749FF6" />
            <stop offset="0.430493" stop-color="#153984" />
        </linearGradient>
        <linearGradient id="paint2_linear_124_747" x1="25.1119" y1="15.6735" x2="25.1119"
            y2="34.3225" gradientUnits="userSpaceOnUse">
            <stop stop-color="#8096CB" />
            <stop offset="1" stop-color="#8096CB" stop-opacity="0.5" />
        </linearGradient>
    </defs>
</svg>