<svg xmlns="http://www.w3.org/2000/svg" width="54" height="54" viewBox="0 0 54 54" fill="none">
    <g filter="url(#filter0_d_175_6253)">
        <rect x="9" y="9" width="36" height="36" rx="9.24998" fill="url(#paint0_linear_175_6253)"
            fill-opacity="0.35" shape-rendering="crispEdges" />
        <rect x="9.66071" y="9.66071" width="34.6786" height="34.6786" rx="8.58927"
            stroke="url(#paint1_linear_175_6253)" stroke-opacity="0.3" stroke-width="1.32143"
            shape-rendering="crispEdges" />
    </g>
    <path fill-rule="evenodd" clip-rule="evenodd"
        d="M18.0624 18.0273C17.6628 18.0273 17.3388 18.3513 17.3388 18.751V24.9385C17.3388 25.3381 17.6628 25.6621 18.0624 25.6621H35.9374C36.337 25.6621 36.661 25.3381 36.661 24.9385V18.751C36.661 18.3513 36.337 18.0273 35.9374 18.0273H18.0624ZM18.786 24.2148V19.4746H35.2138V24.2148H18.786ZM18.0625 28.3386C17.6629 28.3386 17.3389 28.6626 17.3389 29.0623V35.2498C17.3389 35.6494 17.6629 35.9734 18.0625 35.9734H35.9375C36.3371 35.9734 36.6611 35.6494 36.6611 35.2498V29.0623C36.6611 28.6626 36.3371 28.3386 35.9375 28.3386H18.0625ZM18.7861 34.5261V29.7859H35.2139V34.5261H18.7861ZM20.7764 21.8435C20.7764 21.4439 21.1004 21.1199 21.5 21.1199H24.25C24.6496 21.1199 24.9736 21.4439 24.9736 21.8435C24.9736 22.2431 24.6496 22.5671 24.25 22.5671H21.5C21.1004 22.5671 20.7764 22.2431 20.7764 21.8435ZM21.5 31.4348C21.1004 31.4348 20.7764 31.7588 20.7764 32.1584C20.7764 32.558 21.1004 32.882 21.5 32.882H24.25C24.6496 32.882 24.9736 32.558 24.9736 32.1584C24.9736 31.7588 24.6496 31.4348 24.25 31.4348H21.5ZM32.5 22.5334C32.8797 22.5334 33.1875 22.2256 33.1875 21.8459C33.1875 21.4662 32.8797 21.1584 32.5 21.1584C32.1203 21.1584 31.8125 21.4662 31.8125 21.8459C31.8125 22.2256 32.1203 22.5334 32.5 22.5334ZM33.1875 32.156C33.1875 32.5357 32.8797 32.8435 32.5 32.8435C32.1203 32.8435 31.8125 32.5357 31.8125 32.156C31.8125 31.7763 32.1203 31.4685 32.5 31.4685C32.8797 31.4685 33.1875 31.7763 33.1875 32.156Z"
        fill="url(#paint2_linear_175_6253)" />
    <defs>
        <filter id="filter0_d_175_6253" x="0.328139" y="0.328139" width="53.3437" height="53.3437"
            filterUnits="userSpaceOnUse" color-interpolation-filters="sRGB">
            <feFlood flood-opacity="0" result="BackgroundImageFix" />
            <feColorMatrix in="SourceAlpha" type="matrix"
                values="0 0 0 0 0 0 0 0 0 0 0 0 0 0 0 0 0 0 127 0" result="hardAlpha" />
            <feOffset />
            <feGaussianBlur stdDeviation="4.33593" />
            <feComposite in2="hardAlpha" operator="out" />
            <feColorMatrix type="matrix" values="0 0 0 0 0 0 0 0 0 0 0 0 0 0 0 0 0 0 0.4 0" />
            <feBlend mode="normal" in2="BackgroundImageFix" result="effect1_dropShadow_175_6253" />
            <feBlend mode="normal" in="SourceGraphic" in2="effect1_dropShadow_175_6253"
                result="shape" />
        </filter>
        <linearGradient id="paint0_linear_175_6253" x1="27" y1="9" x2="27" y2="45"
            gradientUnits="userSpaceOnUse">
            <stop stop-color="#284A90" />
            <stop offset="1" stop-color="#284A90" stop-opacity="0.4" />
        </linearGradient>
        <linearGradient id="paint1_linear_175_6253" x1="27" y1="9" x2="27" y2="45"
            gradientUnits="userSpaceOnUse">
            <stop stop-color="#749FF6" />
            <stop offset="0.430493" stop-color="#153984" />
        </linearGradient>
        <linearGradient id="paint2_linear_175_6253" x1="27.0033" y1="17.6418" x2="27.0033"
            y2="36.3607" gradientUnits="userSpaceOnUse">
            <stop stop-color="#8096CC" />
            <stop offset="1" stop-color="#8096CB" stop-opacity="0.5" />
        </linearGradient>
    </defs>
</svg>