<svg xmlns="http://www.w3.org/2000/svg" width="54" height="54" viewBox="0 0 54 54" fill="none">
    <g filter="url(#filter0_d_124_715)">
        <rect x="9" y="9" width="36" height="36" rx="9.24998" fill="url(#paint0_linear_124_715)"
            fill-opacity="0.35" shape-rendering="crispEdges" />
        <rect x="9.66071" y="9.66071" width="34.6786" height="34.6786" rx="8.58927"
            stroke="url(#paint1_linear_124_715)" stroke-opacity="0.3" stroke-width="1.32143"
            shape-rendering="crispEdges" />
    </g>
    <path fill-rule="evenodd" clip-rule="evenodd"
        d="M24.0943 19.3276C23.6156 19.3276 23.2275 18.9395 23.2275 18.4608V16.4381C23.2275 15.9594 23.6156 15.5713 24.0943 15.5713C24.5731 15.5713 24.9612 15.9594 24.9612 16.4381V18.4608C24.9612 18.9395 24.5731 19.3276 24.0943 19.3276ZM30.7412 22.9377L22.9396 22.9377L22.9396 30.7393L30.7412 30.7393L30.7412 22.9377ZM22.9396 21.204C21.9821 21.204 21.2059 21.9802 21.2059 22.9377V30.7393C21.2059 31.6968 21.9821 32.473 22.9396 32.473H30.7412C31.6987 32.473 32.4749 31.6968 32.4749 30.7393V22.9377C32.4749 21.9802 31.6987 21.204 30.7412 21.204H22.9396ZM23.2275 37.2423C23.2275 37.721 23.6156 38.1091 24.0943 38.1091C24.5731 38.1091 24.9612 37.721 24.9612 37.2423V35.2196C24.9612 34.7409 24.5731 34.3528 24.0943 34.3528C23.6156 34.3528 23.2275 34.7409 23.2275 35.2196V37.2423ZM29.7289 19.3276C29.2502 19.3276 28.8621 18.9395 28.8621 18.4608V16.4381C28.8621 15.9594 29.2502 15.5713 29.7289 15.5713C30.2076 15.5713 30.5957 15.9594 30.5957 16.4381V18.4608C30.5957 18.9395 30.2076 19.3276 29.7289 19.3276ZM28.8621 37.2423C28.8621 37.721 29.2502 38.1091 29.7289 38.1091C30.2076 38.1091 30.5957 37.721 30.5957 37.2423V35.2196C30.5957 34.7409 30.2076 34.3528 29.7289 34.3528C29.2502 34.3528 28.8621 34.7409 28.8621 35.2196V37.2423ZM15.5715 24.0974C15.5715 23.6186 15.9596 23.2305 16.4383 23.2305H18.461C18.9397 23.2305 19.3278 23.6186 19.3278 24.0974C19.3278 24.5761 18.9397 24.9642 18.461 24.9642H16.4383C15.9596 24.9642 15.5715 24.5761 15.5715 24.0974ZM35.2211 23.2305C34.7424 23.2305 34.3543 23.6186 34.3543 24.0974C34.3543 24.5761 34.7424 24.9642 35.2211 24.9642H37.2437C37.7225 24.9642 38.1106 24.5761 38.1106 24.0974C38.1106 23.6186 37.7225 23.2305 37.2437 23.2305H35.2211ZM34.3543 29.7284C34.3543 29.2496 34.7424 28.8615 35.2211 28.8615H37.2437C37.7225 28.8615 38.1106 29.2496 38.1106 29.7284C38.1106 30.2071 37.7225 30.5952 37.2437 30.5952H35.2211C34.7424 30.5952 34.3543 30.2071 34.3543 29.7284ZM16.4383 28.8615C15.9596 28.8615 15.5715 29.2496 15.5715 29.7284C15.5715 30.2071 15.9596 30.5952 16.4383 30.5952H18.461C18.9397 30.5952 19.3278 30.2071 19.3278 29.7284C19.3278 29.2496 18.9397 28.8615 18.461 28.8615H16.4383Z"
        fill="url(#paint2_linear_124_715)" />
    <defs>
        <filter id="filter0_d_124_715" x="0.328139" y="0.328139" width="53.3437" height="53.3437"
            filterUnits="userSpaceOnUse" color-interpolation-filters="sRGB">
            <feFlood flood-opacity="0" result="BackgroundImageFix" />
            <feColorMatrix in="SourceAlpha" type="matrix"
                values="0 0 0 0 0 0 0 0 0 0 0 0 0 0 0 0 0 0 127 0" result="hardAlpha" />
            <feOffset />
            <feGaussianBlur stdDeviation="4.33593" />
            <feComposite in2="hardAlpha" operator="out" />
            <feColorMatrix type="matrix" values="0 0 0 0 0 0 0 0 0 0 0 0 0 0 0 0 0 0 0.4 0" />
            <feBlend mode="normal" in2="BackgroundImageFix" result="effect1_dropShadow_124_715" />
            <feBlend mode="normal" in="SourceGraphic" in2="effect1_dropShadow_124_715"
                result="shape" />
        </filter>
        <linearGradient id="paint0_linear_124_715" x1="27" y1="9" x2="27" y2="45"
            gradientUnits="userSpaceOnUse">
            <stop stop-color="#284A90" />
            <stop offset="1" stop-color="#284A90" stop-opacity="0.4" />
        </linearGradient>
        <linearGradient id="paint1_linear_124_715" x1="27" y1="9" x2="27" y2="45"
            gradientUnits="userSpaceOnUse">
            <stop stop-color="#749FF6" />
            <stop offset="0.430493" stop-color="#153984" />
        </linearGradient>
        <linearGradient id="paint2_linear_124_715" x1="26.8449" y1="15.0871" x2="26.8449"
            y2="38.5955" gradientUnits="userSpaceOnUse">
            <stop stop-color="#8096CC" />
            <stop offset="1" stop-color="#8096CB" stop-opacity="0.5" />
        </linearGradient>
    </defs>
</svg>